<!-- Simple SVG icon for MSME Assistant -->
<svg width="512" height="512" viewBox="0 0 512 512" xmlns="http://www.w3.org/2000/svg">
  <!-- Background -->
  <rect width="512" height="512" fill="#2563eb"/>
  
  <!-- Building icon representing business -->
  <rect x="150" y="180" width="80" height="250" fill="white" stroke="#1d4ed8" stroke-width="4"/>
  <rect x="280" y="150" width="80" height="280" fill="white" stroke="#1d4ed8" stroke-width="4"/>
  
  <!-- Windows -->
  <rect x="165" y="200" width="20" height="20" fill="#2563eb"/>
  <rect x="195" y="200" width="20" height="20" fill="#2563eb"/>
  <rect x="165" y="240" width="20" height="20" fill="#2563eb"/>
  <rect x="195" y="240" width="20" height="20" fill="#2563eb"/>
  <rect x="165" y="280" width="20" height="20" fill="#2563eb"/>
  <rect x="195" y="280" width="20" height="20" fill="#2563eb"/>
  
  <rect x="295" y="170" width="20" height="20" fill="#2563eb"/>
  <rect x="325" y="170" width="20" height="20" fill="#2563eb"/>
  <rect x="295" y="210" width="20" height="20" fill="#2563eb"/>
  <rect x="325" y="210" width="20" height="20" fill="#2563eb"/>
  <rect x="295" y="250" width="20" height="20" fill="#2563eb"/>
  <rect x="325" y="250" width="20" height="20" fill="#2563eb"/>
  
  <!-- Text -->
  <text x="256" y="100" font-family="Arial, sans-serif" font-size="48" font-weight="bold" text-anchor="middle" fill="white">MSME</text>
  <text x="256" y="480" font-family="Arial, sans-serif" font-size="24" font-weight="bold" text-anchor="middle" fill="white">Assistant</text>
</svg>